<svg width="28" height="28" viewBox="0 0 28 28" fill="none" xmlns="http://www.w3.org/2000/svg">
<path d="M14.0003 27.3332C6.63653 27.3332 0.666992 21.3636 0.666992 13.9998C0.666992 6.63604 6.63653 0.666504 14.0003 0.666504C21.3641 0.666504 27.3337 6.63604 27.3337 13.9998C27.3256 21.3603 21.3608 27.3251 14.0003 27.3332ZM14.0003 3.33317C8.10929 3.33317 3.33366 8.1088 3.33366 13.9998C3.33366 19.8909 8.10929 24.6665 14.0003 24.6665C19.8914 24.6665 24.667 19.8909 24.667 13.9998C24.6604 8.11154 19.8886 3.33978 14.0003 3.33317ZM20.667 15.3332H12.667V7.33317H15.3337V12.6665H20.667V15.3332Z" fill="white"/>
</svg>
